<?xml version="1.0" standalone="no"?><!DOCTYPE svg PUBLIC "-//W3C//DTD SVG 1.1//EN" "http://www.w3.org/Graphics/SVG/1.1/DTD/svg11.dtd"><svg class="icon" width="200px" height="200.00px" viewBox="0 0 1024 1024" version="1.1" xmlns="http://www.w3.org/2000/svg"><path d="M0 0h1024v1024H0z" fill="#FFFFFF" /><path d="M649.142857 338.285714m-338.285714 0a338.285714 338.285714 0 1 0 676.571428 0 338.285714 338.285714 0 1 0-676.571428 0Z" fill="#00B8C5" opacity=".6" /><path d="M768 658.285714m-219.428571 0a219.428571 219.428571 0 1 0 438.857142 0 219.428571 219.428571 0 1 0-438.857142 0Z" fill="#00B8C5" opacity=".6" /><path d="M512 0a512 512 0 1 0 512 512A512 512 0 0 0 512 0z m0 896a384 384 0 1 1 384-384 384 384 0 0 1-384 384z" fill="#333333" /><path d="M512 460.251429a68.388571 68.388571 0 0 0-68.571429 68.571428v182.857143a68.571429 68.571429 0 1 0 136.96 0v-182.857143A68.571429 68.571429 0 0 0 512 460.251429z m0 0M420.571429 329.142857a91.428571 91.428571 0 1 0 91.428571-91.428571 91.428571 91.428571 0 0 0-91.428571 91.428571z m0 0" fill="#808080" /></svg>