<?xml version="1.0" standalone="no"?><!DOCTYPE svg PUBLIC "-//W3C//DTD SVG 1.1//EN" "http://www.w3.org/Graphics/SVG/1.1/DTD/svg11.dtd"><svg class="icon" width="200px" height="200.00px" viewBox="0 0 1024 1024" version="1.1" xmlns="http://www.w3.org/2000/svg"><path d="M0.499805 852.467005c0 93.663413 76.670051 170.233503 170.333463 170.233503h102.160094v-85.166732h-85.166732c-56.178055 0-102.160094-47.281531-102.160093-105.158922v-82.167904H0.499805v102.260055z m85.166732-661.141741c0-57.877392 45.982038-105.158922 102.160093-105.158923h85.166732V0.99961H170.833268C77.169856 0.99961 0.499805 77.66966 0.499805 171.333073v102.160094h85.166732v-82.167903z m936.534166 82.167903V171.333073C1022.200703 77.66966 945.630613 0.99961 851.9672 0.99961H749.807107v85.166731H834.873877c56.178055 0 102.160094 47.281531 102.160094 105.158923v82.167903h85.166732z m-85.166732 558.881687c0 57.877392-45.982038 105.158922-102.160094 105.158922h-85.166731v85.166732H851.867239c93.663413 0 170.233503-76.670051 170.233503-170.233503V750.306911h-85.166732v82.067943z m0 0" fill="#BECFDB" /><path d="M698.72706 443.726669H579.473643V324.573214c0-37.485357-30.688012-68.073409-68.073409-68.073409-37.485357 0-68.073409 30.688012-68.073409 68.073409v119.153455H324.073409c-37.485357 0-68.073409 30.688012-68.073409 68.073409 0 37.485357 30.688012 68.073409 68.073409 68.073409h119.153456v119.153456c0 37.485357 30.688012 68.073409 68.073408 68.073408 37.485357 0 68.073409-30.688012 68.073409-68.073408V579.973448h119.153456c37.485357 0 68.073409-30.688012 68.073409-68.073409 0.199922-37.485357-30.488091-68.17337-67.873487-68.17337z m0 0" fill="#3E96D2" /></svg>