<?xml version="1.0" standalone="no"?><!DOCTYPE svg PUBLIC "-//W3C//DTD SVG 1.1//EN" "http://www.w3.org/Graphics/SVG/1.1/DTD/svg11.dtd"><svg class="icon" width="200px" height="200.00px" viewBox="0 0 1024 1024" version="1.1" xmlns="http://www.w3.org/2000/svg"><path d="M511.641 990.708c-54.599 0-99.014-44.414-99.014-99.014V611.155H132.088c-54.599 0-99.014-44.414-99.014-99.014v-16.502c0-54.599 44.414-99.014 99.014-99.014h280.539V132.588c0-54.599 44.414-99.014 99.014-99.014h16.502c54.599 0 99.014 44.414 99.014 99.014v264.037h264.037c54.599 0 99.014 44.414 99.014 99.014v16.502c0 54.599-44.414 99.014-99.014 99.014H627.158v280.539c0 54.599-44.414 99.014-99.014 99.014h-16.503z" fill="#FFE44E" /><path d="M891.197 363.623H660.164V132.59C660.164 59.678 601.057 0.571 528.146 0.571h-16.502c-72.912 0-132.018 59.107-132.018 132.019v231.032H132.09C59.178 363.622 0.071 422.729 0.071 495.64v16.502c0 72.912 59.107 132.018 132.019 132.018h247.535v247.535c0 72.912 59.107 132.018 132.018 132.018h16.502c72.912 0 132.018-59.107 132.018-132.018V644.162h231.032c72.912 0 132.018-59.107 132.018-132.018v-16.502c0.002-72.913-59.105-132.019-132.016-132.019z m66.009 148.52c0 36.397-29.612 66.009-66.009 66.009H594.155v313.544c0 36.397-29.612 66.009-66.009 66.009h-16.502c-36.398 0-66.009-29.612-66.009-66.009V578.153H132.09c-36.398 0-66.009-29.612-66.009-66.009v-16.502c0-36.398 29.611-66.009 66.009-66.009h313.544V132.59c0-36.398 29.611-66.009 66.009-66.009h16.502c36.397 0 66.009 29.611 66.009 66.009v297.041h297.041c36.397 0 66.009 29.611 66.009 66.009v16.503z" fill="#C15B17" /></svg>