<?xml version="1.0" standalone="no"?><!DOCTYPE svg PUBLIC "-//W3C//DTD SVG 1.1//EN" "http://www.w3.org/Graphics/SVG/1.1/DTD/svg11.dtd"><svg class="icon" width="200px" height="200.00px" viewBox="0 0 1024 1024" version="1.1" xmlns="http://www.w3.org/2000/svg"><path d="M512 120.2c-216.4 0-391.8 175.4-391.8 391.8S295.6 903.8 512 903.8 903.8 728.4 903.8 512 728.4 120.2 512 120.2z m0 673.4c-155.5 0-281.6-126.1-281.6-281.6 0-155.5 126.1-281.6 281.6-281.6S793.6 356.5 793.6 512c0 155.5-126.1 281.6-281.6 281.6z" fill="#FFC44F" /><path d="M512 925.8C283.8 925.8 98.2 740.2 98.2 512 98.2 283.8 283.8 98.2 512 98.2c228.2 0 413.9 185.6 413.9 413.8-0.1 228.2-185.7 413.8-413.9 413.8z m0-783.6c-203.9 0-369.8 165.9-369.8 369.8S308.1 881.8 512 881.8 881.8 715.9 881.8 512 715.9 142.2 512 142.2z m0 673.5c-167.4 0-303.6-136.2-303.6-303.7 0-167.4 136.2-303.6 303.6-303.6 167.4 0 303.7 136.2 303.7 303.6 0 167.4-136.3 303.7-303.7 303.7z m0-563.3c-143.1 0-259.6 116.4-259.6 259.6S368.9 771.6 512 771.6 771.6 655.1 771.6 512 655.1 252.4 512 252.4z" fill="#2B2E54" /><path d="M512 521.4c-12.2 0-22-9.9-22-22V334.5c0-12.2 9.9-22 22-22s22 9.9 22 22v164.9c0 12.1-9.8 22-22 22z" fill="#2B2E54" /><path d="M664.5 672.3c-5.6 0-11.3-2.2-15.6-6.5L496.4 513.3c-8.6-8.6-8.6-22.6 0-31.2 8.6-8.6 22.6-8.6 31.2 0l152.6 152.5c8.6 8.6 8.6 22.6 0 31.2-4.4 4.3-10 6.5-15.7 6.5z" fill="#2B2E54" /></svg>