<?xml version="1.0" standalone="no"?><!DOCTYPE svg PUBLIC "-//W3C//DTD SVG 1.1//EN" "http://www.w3.org/Graphics/SVG/1.1/DTD/svg11.dtd"><svg class="icon" width="200px" height="200.00px" viewBox="0 0 1024 1024" version="1.1" xmlns="http://www.w3.org/2000/svg"><path d="M930.909091 814.545455h-293.236364l311.854546-311.854546c18.618182-18.618182 18.618182-51.2 0-69.818182l-321.163637-321.163636c-18.618182-18.618182-51.2-18.618182-69.818181 0L51.2 609.745455c-18.618182 18.618182-18.618182 51.2 0 69.818181L186.181818 814.545455H60.509091c-18.618182 0-37.236364 18.618182-37.236364 37.236363v41.890909c0 18.618182 18.618182 37.236364 37.236364 37.236364H930.909091c18.618182 0 37.236364-18.618182 37.236364-37.236364v-41.890909c0-18.618182-18.618182-37.236364-37.236364-37.236363z" fill="#77A5F0" /><path d="M516.654545 870.4H302.545455l-55.854546-55.854545L83.781818 651.636364c-4.654545-4.654545-4.654545-4.654545 0-9.309091L586.472727 139.636364h9.309091l321.163637 321.163636c4.654545 4.654545 4.654545 4.654545 0 9.309091l-344.436364 344.436364-55.854546 55.854545z" fill="#D9E6FF" /><path d="M553.890909 237.381818c-9.309091 0-23.272727 4.654545-23.272727 18.618182l-37.236364 302.545455-297.890909 32.581818c-9.309091 0-18.618182 9.309091-18.618182 23.272727 0 9.309091 9.309091 18.618182 18.618182 18.618182l311.854546-37.236364c9.309091 0 18.618182-9.309091 18.618181-18.618182l41.890909-316.509091c4.654545-13.963636 0-23.272727-13.963636-23.272727z" fill="#77A5F0" /></svg>