<?xml version="1.0" standalone="no"?><!DOCTYPE svg PUBLIC "-//W3C//DTD SVG 1.1//EN" "http://www.w3.org/Graphics/SVG/1.1/DTD/svg11.dtd"><svg class="icon" width="200px" height="193.21px" viewBox="0 0 1060 1024" version="1.1" xmlns="http://www.w3.org/2000/svg"><path fill="#2197ef" d="M914.287948 527.799034V512.000183h-182.857078v182.857077h-182.857077v182.857078h25.599991l-16.749709 17.261708A63.30512 63.30512 0 0 1 512.002377 914.285753a63.268549 63.268549 0 0 1-45.421698-19.309707L84.263101 501.577329A295.167895 295.167895 0 0 1 0.00256 293.851689a295.131323 295.131323 0 0 1 84.333684-207.798783A283.355327 283.355327 0 0 1 288.002457 0.000366c76.946258 0 138.605665 30.573703 192.98736 86.05254v0.036572l0.109714 0.109714 30.902846 37.302844 30.902846-39.716557h0.036572l0.109714-0.073143C597.396632 28.160356 659.019467 0.000366 736.002297 0.000366c76.946258 0 149.247947 30.573703 203.666213 86.05254A295.131323 295.131323 0 0 1 1024.002194 293.888261a295.094752 295.094752 0 0 1-84.297112 207.72564l-25.417134 26.185133z"  /><path fill="#2197ef" d="M768.002286 731.428676v-182.857078h109.714246v182.857078h182.857078v109.714246h-182.857078v182.857078h-109.714246v-182.857078h-182.857078v-109.714246h182.857078z"  /></svg>