<?xml version="1.0" standalone="no"?><!DOCTYPE svg PUBLIC "-//W3C//DTD SVG 1.1//EN" "http://www.w3.org/Graphics/SVG/1.1/DTD/svg11.dtd"><svg class="icon" width="200px" height="200.00px" viewBox="0 0 1024 1024" version="1.1" xmlns="http://www.w3.org/2000/svg"><path d="M512 512m-448 0a448 448 0 1 0 896 0 448 448 0 1 0-896 0Z" fill="#0099EE" /><path d="M362.7 263.1h298.7c27.5 0 49.8 22.3 49.8 49.8v398.2c0 27.5-22.3 49.8-49.8 49.8H362.7c-27.5 0-49.8-22.3-49.8-49.8V312.9c0-27.5 22.3-49.8 49.8-49.8z" fill="#FFFFFF" /><path d="M362.7 362.7H512v49.8H362.7z" fill="#FF4444" /><path d="M362.7 487.1h298.7v49.8H362.7zM362.7 611.6h298.7v49.8H362.7z" fill="#999999" /></svg>