<?xml version="1.0" standalone="no"?><!DOCTYPE svg PUBLIC "-//W3C//DTD SVG 1.1//EN" "http://www.w3.org/Graphics/SVG/1.1/DTD/svg11.dtd"><svg class="icon" width="200px" height="108.99px" viewBox="0 0 1879 1024" version="1.1" xmlns="http://www.w3.org/2000/svg"><path fill="#2197ef" d="M1095.291 448.306c-43.96 0-79.932 35.718-79.932 79.932s35.967 79.932 79.932 79.932 79.932-35.967 79.932-79.932-35.718-79.932-79.932-79.932zM1806.926-166.667c0-61.447-49.958-111.405-111.405-111.405h-1200.215c-61.447 0-111.405 49.958-111.405 111.405v111.654h96.667v-126.391h1229.936v787.571h-126.391v96.667h111.405c61.447 0 111.405-49.958 111.405-111.405v-758.096zM779.566 448.306c-43.96 0-79.932 35.718-79.932 79.932s35.967 79.932 79.932 79.932 79.932-35.967 79.932-79.932-35.967-79.932-79.932-79.932z"  /><path fill="#2197ef" d="M1491.199 149.315c0-61.447-49.958-111.405-111.405-111.405h-1200.466c-61.447 0-111.405 49.958-111.405 111.405v758.096c0 61.447 49.958 111.405 111.405 111.405h141.129v294.994l294.994-294.994h764.088c61.447 0 111.405-49.958 111.405-111.405v-758.096h0.249zM1388.291 915.9h-815.546l-149.371 149.371v-149.371h-252.781v-775.328h1217.699v775.328z"  /><path fill="#2197ef" d="M463.585 448.306c-43.96 0-79.932 35.718-79.932 79.932s35.967 79.932 79.932 79.932 79.932-35.967 79.932-79.932-35.718-79.932-79.932-79.932z"  /></svg>