<?xml version="1.0" standalone="no"?><!DOCTYPE svg PUBLIC "-//W3C//DTD SVG 1.1//EN" "http://www.w3.org/Graphics/SVG/1.1/DTD/svg11.dtd"><svg class="icon" width="200px" height="200.00px" viewBox="0 0 1024 1024" version="1.1" xmlns="http://www.w3.org/2000/svg"><path d="M86.13736297 511.0290963l453.41202962-453.41202963c32.03982222-32.03982222 74.03140741-47.93837037 116.02299259-47.93837037 41.99158518 0 83.98317037 16.01991111 116.0229926 47.93837037 63.95828148 63.95828148 63.95828148 168.0877037 0 232.04598518L376.55893333 684.6994963c-12.50038518 12.50038518-32.768 12.50038518-45.26838518 0-12.50038518-12.50038518-12.50038518-32.768 0-45.26838519l394.91508148-394.91508148c39.07887408-39.07887408 39.07887408-102.5517037 0-141.50921481-39.07887408-39.07887408-102.5517037-39.07887408-141.50921481 0L131.40574815 556.29748148M655.57238518 9.6786963" fill="#2197EF" /><path d="M340.87822222 346.82500741l414.09042963 414.09042962c51.57925925 51.57925925 51.57925925 135.19834075 0 186.7776s-135.19834075 51.57925925-186.7776 0L153.97925925 533.72397037" fill="#CEE8FA" /><path d="M131.40574815 556.29748148l408.14364444 408.14364444c30.94755555 30.94755555 72.21096297 48.05973333 116.02299259 48.05973333 43.81202963 0 85.07543703-17.11217778 116.0229926-48.05973333 63.95828148-63.95828148 63.95828148-168.0877037 0-232.04598517L363.45173333 324.2514963m-90.53677036 0l21.11715555 21.11715555 24.02986666 24.02986667 408.14364445 408.14364445c39.07887408 39.07887408 39.07887408 102.5517037 0 141.50921481-18.93262222 18.93262222-44.05475555 29.36983703-70.75460741 29.36983704s-51.82198518-10.43721482-70.7546074-29.36983704L176.67413333 511.0290963l-24.87940741-24.87940741-20.26761481-20.26761481" fill="#2197EF" /></svg>