<?xml version="1.0" standalone="no"?><!DOCTYPE svg PUBLIC "-//W3C//DTD SVG 1.1//EN" "http://www.w3.org/Graphics/SVG/1.1/DTD/svg11.dtd"><svg class="icon" width="200px" height="82.05px" viewBox="0 0 2496 1024" version="1.1" xmlns="http://www.w3.org/2000/svg"><path d="M816 560m-336 0a336 336 0 1 0 672 0 336 336 0 1 0-672 0Z" fill="#50A8FF" /><path d="M1968 560m-336 0a336 336 0 1 0 672 0 336 336 0 1 0-672 0Z" fill="#50A8FF" /><path d="M672 1024C389.216 1024 160 794.784 160 512S389.216 0 672 0s512 229.216 512 512-229.216 512-512 512z m0-192c176.736 0 320-143.264 320-320S848.736 192 672 192 352 335.264 352 512s143.264 320 320 320zM1824 1024c-282.784 0-512-229.216-512-512S1541.216 0 1824 0s512 229.216 512 512-229.216 512-512 512z m0-192c176.736 0 320-143.264 320-320S2000.736 192 1824 192 1504 335.264 1504 512s143.264 320 320 320z" fill="#333333" /><path d="M992 640v-192h480v192zM2240 656a96 96 0 0 1 0-192h160a96 96 0 0 1 0 192h-160zM96 656a96 96 0 0 1 0-192h160a96 96 0 0 1 0 192H96z" fill="#333333" /></svg>