<?xml version="1.0" standalone="no"?><!DOCTYPE svg PUBLIC "-//W3C//DTD SVG 1.1//EN" "http://www.w3.org/Graphics/SVG/1.1/DTD/svg11.dtd"><svg class="icon" width="200px" height="153.75px" viewBox="0 0 1332 1024" version="1.1" xmlns="http://www.w3.org/2000/svg"><path fill="#2197ef" d="M1303.820143 495.033138l-166.34178-306.068875c-43.248863-113.112411-153.034438-186.302794-272.80052-186.302795h-402.547109c-129.746589 0-246.185835 86.497726-282.781026 212.917479l-153.034438 282.781027c-56.556205 103.131904-16.634178 232.878493 83.17089 289.434698 19.961014 9.980507 43.248863 19.961014 66.536712 23.287849 36.595192 126.419753 153.034438 212.917479 282.781027 212.917479h402.547108c129.746589 0 246.185835-86.497726 282.781027-212.917479 23.287849-3.326836 49.902534-9.980507 69.863548-23.287849 106.458739-59.883041 146.380767-189.62963 89.824561-292.761534z m-1157.738791 226.224822c-69.863548-36.595192-96.478233-126.419753-59.883041-196.283301l79.844054-146.380767v352.644575c-6.653671-3.326836-13.307342-3.326836-19.961013-9.980507z m944.821312 3.326835c0 123.092917-99.805068 226.224821-226.224821 226.224822h-402.547109c-123.092917 0-226.224821-99.805068-226.224821-226.224822V295.423002c0-123.092917 99.805068-226.224821 226.224821-226.224821h402.547109c123.092917 0 226.224821 99.805068 226.224821 226.224821v429.161793z m163.014945-86.497725c-13.307342 46.575699-49.902534 83.17089-96.478233 96.478232v-362.625081l83.17089 156.361273c19.961014 33.268356 26.614685 73.190383 13.307343 109.785576z"  /><path fill="#2197ef" d="M442.169721 375.267057c-36.595192-6.653671-69.863548 16.634178-76.517219 49.902534-6.653671 36.595192 16.634178 69.863548 49.902534 76.517219 36.595192 6.653671 69.863548-16.634178 76.517219-49.902534v-13.307343c3.326836-33.268356-19.961014-59.883041-49.902534-63.209876z m442.469135 0c-36.595192-6.653671-69.863548 16.634178-76.517219 49.902534-6.653671 36.595192 16.634178 69.863548 49.902535 76.517219 36.595192 6.653671 69.863548-16.634178 76.517219-49.902534v-13.307343c3.326836-33.268356-19.961014-59.883041-49.902535-63.209876z m-103.131903 395.893437c-46.575699 0-86.497726-46.575699-86.497726-106.45874 0-3.326836 0-6.653671-3.326836-9.980506 19.961014-13.307342 29.94152-36.595192 29.941521-63.209877 6.653671-33.268356-16.634178-63.209877-46.575699-69.863548s-63.209877 16.634178-69.863548 46.575699v23.287849c0 23.287849 9.980507 46.575699 29.941521 63.209877 0 3.326836-3.326836 6.653671-3.326836 9.980506 0 59.883041-39.922027 106.458739-86.497726 106.45874-16.634178 3.326836-29.94152 19.961014-26.614684 36.595192 3.326836 13.307342 13.307342 23.287849 26.614684 26.614684 49.902534-3.326836 96.478233-33.268356 119.766082-79.844054 19.961014 46.575699 66.536712 76.517219 119.766082 79.844054 16.634178-3.326836 29.94152-19.961014 26.614685-36.595191-6.653671-13.307342-16.634178-23.287849-29.94152-26.614685z"  /></svg>