<?xml version="1.0" standalone="no"?><!DOCTYPE svg PUBLIC "-//W3C//DTD SVG 1.1//EN" "http://www.w3.org/Graphics/SVG/1.1/DTD/svg11.dtd"><svg class="icon" width="200px" height="200.00px" viewBox="0 0 1024 1024" version="1.1" xmlns="http://www.w3.org/2000/svg"><path d="M868.848485 837.818182H155.151515c-24.824242 0-46.545455-21.721212-46.545454-46.545455v-496.484848C108.606061 269.963636 130.327273 248.242424 155.151515 248.242424h713.69697c24.824242 0 46.545455 21.721212 46.545454 46.545455v496.484848c0 24.824242-21.721212 46.545455-46.545454 46.545455zM155.151515 279.272727c-9.309091 0-15.515152 6.206061-15.515151 15.515152v496.484848c0 9.309091 6.206061 15.515152 15.515151 15.515152h713.69697c9.309091 0 15.515152-6.206061 15.515151-15.515152v-496.484848c0-9.309091-6.206061-15.515152-15.515151-15.515152H155.151515z" fill="#222222" /><path d="M543.030303 574.060606h-310.30303c-9.309091 0-15.515152 6.206061-15.515152 15.515152s6.206061 15.515152 15.515152 15.515151h310.30303c9.309091 0 15.515152-6.206061 15.515152-15.515151s-6.206061-15.515152-15.515152-15.515152zM387.878788 667.151515h-155.151515c-9.309091 0-15.515152 6.206061-15.515152 15.515152s6.206061 15.515152 15.515152 15.515151h155.151515c9.309091 0 15.515152-6.206061 15.515151-15.515151s-6.206061-15.515152-15.515151-15.515152z" fill="#222222" /><path d="M139.636364 387.878788h744.727272v93.090909h-744.727272z" fill="#FF800E" /></svg>