<?xml version="1.0" standalone="no"?><!DOCTYPE svg PUBLIC "-//W3C//DTD SVG 1.1//EN" "http://www.w3.org/Graphics/SVG/1.1/DTD/svg11.dtd"><svg class="icon" width="200px" height="200.00px" viewBox="0 0 1024 1024" version="1.1" xmlns="http://www.w3.org/2000/svg"><path d="M535.026601 906.352616c-52.513444 0-95.240582-36.202934-95.240581-80.657068s42.727138-80.657068 95.240581-80.657067 95.240582 36.202934 95.240582 80.657067-42.727138 80.657068-95.240582 80.657068z m0-121.529285c-26.67248 0-48.2919 18.293356-48.2919 40.93618s21.61942 40.93618 48.2919 40.93618 48.355863-18.293356 48.355863-40.93618-21.811309-40.93618-48.355863-40.93618z m0 0" fill="#F5CA1D" /><path d="M748.534367 1023.404507a27.759847 27.759847 0 0 1-12.025003-2.7504c-52.513444-26.352666-137.392055-26.288703-138.351497-26.288703h-362.668972c-69.20773 0-125.303089-47.652272-125.303089-106.114255V106.114255C110.185806 47.524347 166.473053 0 235.488895 0h598.883525C903.580149 0 959.739472 47.652272 959.739472 106.114255v782.200857c0 58.589908-56.287248 106.114255-125.30309 106.114254-12.920482 0-23.474341-8.954789-23.474341-19.828462 0-10.937636 10.553859-19.892425 23.474341-19.892425 43.23884 0 78.41837-29.806656 78.418371-66.393367V106.114255c0-36.650674-35.17953-66.393367-78.418371-66.393368H235.488895c-43.23884 0-78.41837 29.742693-78.41837 66.393368v782.200857c0 36.586711 35.17953 66.393367 78.41837 66.393367h362.477084c5.308911 0 99.270237-0.127926 162.593391 31.789502 11.065561 5.628725 14.839365 17.717691 8.187236 27.248145a24.561708 24.561708 0 0 1-20.212239 9.658381z m0 0" fill="#F5CA1D" /><path d="M633.657211 116.156411H436.395992c-12.920482 0-23.474341-8.954789-23.474341-19.892425s10.553859-19.892425 23.474341-19.892425h197.197256c12.920482 0 23.474341 8.954789 23.474341 19.892425s-10.489896 19.892425-23.410378 19.892425z m0 0M780.195943 202.698055c12.344817 0 22.578862 8.50705 22.578862 19.060909v406.035738c0 10.489896-10.042157 19.060909-22.578862 19.060909H289.857259c-12.40878 0-22.578862-8.50705-22.578862-19.060909V221.822927c0-10.489896 10.042157-19.060909 22.578862-19.060909h490.338684m0-39.720888H289.857259c-38.313706 0-69.463581 26.352666-69.463581 58.781797v406.035738c0 32.42913 31.149875 58.781796 69.463581 58.781796h490.402647c38.313706 0 69.399618-26.352666 69.399618-58.781796V221.822927c0-32.42913-31.149875-58.781796-69.463581-58.781797z m0 0" fill="#F5CA1D" /><path d="M489.101324 906.352616c-52.513444 0-95.240582-36.202934-95.240582-80.657068s42.727138-80.657068 95.240582-80.657067 95.240582 36.202934 95.240582 80.657067-42.727138 80.657068-95.240582 80.657068z m0-121.529285c-26.67248 0-48.355863 18.293356-48.355863 40.93618s21.61942 40.93618 48.355863 40.93618 48.2919-18.293356 48.2919-40.93618-21.683383-40.93618-48.2919-40.93618z m0 0" fill="#040000" /><path d="M702.609089 1023.404507a27.759847 27.759847 0 0 1-12.025003-2.7504c-52.513444-26.352666-137.456018-26.288703-138.351496-26.288703h-362.668972C120.419851 994.365404 64.260528 946.713131 64.260528 888.315112V106.114255C64.260528 47.524347 120.547776 0 189.563618 0h598.883524c69.20773 0 125.303089 47.652272 125.30309 106.114255v782.200857c0 58.589908-56.287248 106.114255-125.30309 106.114254-12.920482 0-23.474341-8.954789-23.474341-19.828462 0-10.937636 10.553859-19.892425 23.474341-19.892425 43.23884 0 78.41837-29.806656 78.418371-66.393367V106.114255c0-36.650674-35.17953-66.393367-78.418371-66.393368H189.563618c-43.23884 0-78.41837 29.742693-78.418371 66.393368v782.200857c0 36.586711 35.17953 66.393367 78.418371 66.393367h362.477083c5.308911 0 99.270237-0.127926 162.593391 31.789502 11.065561 5.628725 14.839365 17.717691 8.187236 27.248145a24.561708 24.561708 0 0 1-20.212239 9.658381z m0 0" fill="#040000" /><path d="M587.731933 116.156411H390.470715c-12.920482 0-23.474341-8.954789-23.474341-19.892425s10.553859-19.828462 23.474341-19.828462h197.261218c12.920482 0 23.474341 8.954789 23.474341 19.892425s-10.553859 19.828462-23.474341 19.828462z m0 0M734.270666 202.698055c12.40878 0 22.578862 8.50705 22.578862 19.060909v406.035738c0 10.489896-10.042157 19.060909-22.578862 19.060909H243.931982c-12.344817 0-22.514899-8.50705-22.514899-19.060909V221.822927c0-10.489896 10.042157-19.060909 22.514899-19.060909h490.338684m0-39.720888H243.931982c-38.313706 0-69.399618 26.352666-69.399618 58.781797v406.035738c0 32.42913 31.149875 58.781796 69.399618 58.781796h490.402647c38.313706 0 69.463581-26.352666 69.463581-58.781796V221.822927c-0.063963-32.42913-31.213837-58.781796-69.527544-58.781797z m0 0" fill="#040000" /></svg>