<?xml version="1.0" standalone="no"?><!DOCTYPE svg PUBLIC "-//W3C//DTD SVG 1.1//EN" "http://www.w3.org/Graphics/SVG/1.1/DTD/svg11.dtd"><svg class="icon" width="200px" height="200.00px" viewBox="0 0 1024 1024" version="1.1" xmlns="http://www.w3.org/2000/svg"><path d="M512.250857 511.749143m-501.714845 0a501.714846 501.714846 0 1 0 1003.429691 0 501.714846 501.714846 0 1 0-1003.429691 0Z" fill="#15C1A9" /><path d="M783.678589 468.601666c0 9.030867-7.525723 16.054875-16.054875 16.054875h-215.737384c-9.030867 0-16.054875-7.525723-16.054875-16.054875v-215.737384c0-9.030867 7.525723-16.054875 16.054875-16.054875h215.737384c9.030867 0 16.054875 7.525723 16.054875 16.054875v215.737384zM783.678589 774.647722c0 9.030867-7.525723 16.054875-16.054875 16.054875h-215.737384c-9.030867 0-16.054875-7.525723-16.054875-16.054875v-215.737384c0-9.030867 7.525723-16.054875 16.054875-16.054875h215.737384c9.030867 0 16.054875 7.525723 16.054875 16.054875v215.737384zM492.182264 774.647722c0 9.030867-7.525723 16.054875-16.054875 16.054875h-215.737384c-9.030867 0-16.054875-7.525723-16.054875-16.054875v-215.737384c0-9.030867 7.525723-16.054875 16.054875-16.054875h215.737384c9.030867 0 16.054875 7.525723 16.054875 16.054875v215.737384zM240.321411 360.732974c0 70.240078 57.195492 127.435571 127.435571 127.435571s127.435571-57.195492 127.435571-127.435571-57.195492-127.435571-127.435571-127.435571c-69.738364 0-127.435571 56.693778-127.435571 127.435571z" fill="#FFFFFF" /></svg>