<?xml version="1.0" standalone="no"?><!DOCTYPE svg PUBLIC "-//W3C//DTD SVG 1.1//EN" "http://www.w3.org/Graphics/SVG/1.1/DTD/svg11.dtd"><svg class="icon" width="200px" height="200.00px" viewBox="0 0 1024 1024" version="1.1" xmlns="http://www.w3.org/2000/svg"><path fill="#2197ef" d="M807.424 394.24c-2.048 0.512-5.12 3.072-8.704 8.192-4.096 5.12-7.68 11.264-11.776 18.432-4.096 7.168-7.168 15.36-10.24 23.552-2.56 8.192-4.096 15.872-3.584 23.04 0 5.12 2.56 7.68 7.168 6.656 4.608-0.512 9.216-3.072 13.312-7.68s7.68-10.24 10.752-16.384c3.072-6.144 5.12-13.312 6.656-20.992s2.56-15.36 2.048-22.016c-0.512-9.216-2.048-13.312-5.632-12.8"  /><path fill="#2197ef" d="M1006.08 432.128c-41.984-228.352-310.272-363.52-638.976-300.032C83.456 186.88 2.048 411.648 10.752 542.72c13.312 201.216 166.912 256 166.912 256-6.144 46.08-59.392 117.248-59.392 117.248 146.432 7.68 240.128-46.08 240.128-46.08 563.712 46.592 684.032-239.616 647.68-437.76zM416.768 320c1.536-6.656 4.096-13.312 7.168-20.48 3.072-6.656 7.168-12.8 11.264-17.92 4.096-5.12 9.216-8.192 13.824-8.192 4.096-0.512 9.216 0.512 16.384 3.072 7.168 2.56 14.336 5.632 21.504 8.704 7.168 3.584 13.312 7.68 18.944 11.776 5.12 4.608 8.192 8.192 8.192 11.776 0 3.072-0.512 7.168-2.56 11.776-2.048 5.12-4.096 10.24-6.656 15.36s-5.12 10.24-7.68 14.848c-2.56 4.608-4.608 7.68-5.632 9.728-2.048 3.072-5.12 5.12-8.704 7.168-3.584 2.048-7.168 3.072-10.752 3.584-5.12 0.512-10.752-0.512-17.408-2.56-6.656-2.048-12.8-5.12-18.432-8.704s-10.752-7.68-14.848-12.288c-4.096-4.608-6.144-9.216-6.656-13.312-0.512-2.56 0.512-7.68 2.048-14.336zM305.152 581.632c-1.024 4.608-2.048 8.704-4.096 13.312-2.048 4.608-4.096 8.704-7.168 12.288-3.072 3.584-6.656 6.656-11.264 9.216-4.096 2.048-10.24 4.608-17.92 7.168-7.68 2.56-15.872 5.632-24.576 8.192-8.704 2.56-17.408 4.608-26.112 6.656-8.704 2.048-16.384 3.584-22.528 4.096-15.872 1.536-29.696 0-41.472-4.608-12.288-4.096-23.04-12.288-33.28-23.552-3.584-4.608-7.168-10.24-10.24-16.384-3.584-6.144-5.632-12.288-6.144-17.92-0.512-5.12 1.536-14.848 5.12-28.16 4.096-13.824 9.216-29.184 16.384-46.592 6.656-17.408 14.336-35.84 23.04-55.808 8.192-19.456 16.384-38.4 24.576-55.808s15.36-33.28 22.528-46.592c7.168-13.824 12.288-23.552 16.384-29.184 1.536-2.56 4.096-5.12 6.656-7.168 2.56-2.048 6.144-3.072 10.24-3.584 4.608-0.512 11.264 0.512 19.456 3.584 8.192 2.56 16.384 6.144 24.064 10.24s14.336 8.704 19.456 13.312c5.12 4.608 6.656 8.704 5.12 12.288-8.192 17.408-16.384 34.304-25.088 50.688s-16.896 33.28-24.576 50.176-14.848 33.28-20.992 50.176-11.264 33.792-14.848 51.2c-1.536 5.632-1.536 9.728 0 11.264 1.536 1.536 4.608 2.56 10.24 2.048 12.288-1.024 24.064-3.584 34.304-7.168 10.752-4.096 19.456-6.144 27.648-6.656 6.656-0.512 12.8 1.536 17.92 6.144 5.12 4.608 8.192 10.752 8.704 17.408-0.512 1.536-0.512 5.632-1.536 9.728z m100.864 13.824c-1.536 10.24-4.096 17.92-8.192 22.528-2.048 2.56-5.12 4.608-9.216 6.144-4.096 1.536-7.68 2.56-10.752 3.072-3.072 0.512-6.144-0.512-9.216-2.56-3.072-2.048-6.144-4.096-9.728-6.656s-6.656-4.608-10.752-6.656c-3.584-2.048-7.68-2.56-11.776-2.048s-7.168-0.512-9.728-2.048c-2.56-1.536-5.12-3.584-7.168-6.144s-3.584-4.608-4.608-7.68c-1.024-2.56-1.536-5.12-1.536-6.656-0.512-3.584 1.024-10.24 4.096-19.456s6.656-19.968 11.776-32.256c4.608-11.776 9.728-25.088 15.872-38.4 5.632-13.824 11.264-26.624 16.896-39.424 5.632-12.288 10.752-23.552 15.36-33.28 4.608-9.728 8.192-16.896 10.752-21.504 3.584-6.144 7.168-11.264 9.728-14.848 3.072-3.584 7.168-5.632 13.824-6.144 4.096-0.512 9.216 1.024 15.872 4.096 6.656 3.072 13.312 6.656 19.968 11.264 6.656 4.608 12.288 9.216 16.896 13.824 5.12 4.608 7.68 8.704 7.68 12.288 0.512 4.096-0.512 8.704-2.56 12.8s-4.608 8.192-7.168 12.288c-11.264 18.944-20.992 37.376-28.672 55.296s-14.336 36.352-19.456 55.296c-4.096 14.336-6.656 26.624-8.192 36.864z m190.976-151.552c-5.12 8.192-9.728 18.432-13.312 30.208-4.096 12.288-7.168 25.088-10.24 39.424-3.072 14.336-41.472 208.384-44.032 221.184s-4.608 24.064-6.656 33.792c-2.048 9.728-4.096 15.872-6.144 18.432-3.584 4.608-9.216 7.168-17.408 7.68-5.632 0.512-11.264-0.512-16.384-3.584s-10.24-5.12-16.384-7.168c-8.704-3.072-16.896-5.632-24.576-8.704-7.168-3.072-11.264-7.168-11.776-12.8-0.512-4.096 1.024-12.288 4.608-24.576 3.072-12.288 43.52-206.336 48.128-221.696 4.608-15.36 9.728-30.72 15.36-45.568 3.072-8.704 6.144-16.384 8.704-23.552-7.68-1.024-14.848-2.56-16.896-5.632-7.68-12.288-5.632-47.616 7.68-59.392 7.168-6.656 26.624-10.24 39.936-11.776 5.632-10.752 11.776-22.016 17.408-33.792 6.656-13.312 14.848-25.6 23.552-37.376 8.704-11.264 18.944-20.992 30.72-29.184 11.776-7.68 25.088-12.288 40.96-13.824 5.632-0.512 12.8 1.024 19.968 4.096 7.68 3.584 14.848 7.68 21.504 12.8 7.168 5.12 12.8 10.752 17.408 17.408 4.608 6.144 7.68 12.288 8.192 17.92 0.512 9.216-1.024 16.896-6.144 23.04-4.608 6.144-12.8 9.728-24.064 10.752-6.656 0.512-12.288-1.536-16.896-6.656-4.608-5.12-7.68-10.24-9.728-15.36-1.024-3.072-3.072-4.096-6.144-4.096s-6.144 2.56-9.216 6.144c-2.048 2.048-3.584 5.12-5.632 8.192l-6.144 10.752c-2.048 3.584-3.584 7.168-5.12 10.752-1.536 3.584-2.56 6.656-3.584 9.216 6.656-1.536 25.6-5.632 37.376-4.096 8.192 1.024 17.92 18.944 15.872 34.816-2.048 15.872-3.584 32.768-12.8 36.352-8.192 3.072-50.688 10.24-65.024 10.24-1.536 2.56-2.048 4.096-3.072 5.632z m294.912-6.144c-4.608 11.264-10.752 22.016-19.456 30.72-8.192 9.216-17.92 16.896-29.184 22.528-11.264 6.144-23.552 9.216-36.352 10.24-8.192 0.512-14.848 0.512-19.968-0.512s-8.704-2.56-11.776-4.096c-3.072-1.536-5.12-3.072-7.168-4.608-2.048-1.536-3.584-2.048-5.632-1.536-1.536 0-2.56 1.024-3.584 2.048-1.024 1.536-1.536 3.072-2.048 5.12s-0.512 3.584-0.512 5.12v4.096c0.512 7.168 3.072 13.312 6.656 19.456 4.096 6.144 10.752 8.192 19.968 7.68 4.096-0.512 8.704-1.024 12.8-2.56l12.288-4.608 12.288-4.608c4.096-1.536 8.192-2.56 12.8-2.56 6.656-0.512 12.288 1.024 16.896 5.12 4.608 4.096 7.168 8.704 7.168 14.336 0.512 3.584-0.512 8.704-3.072 14.848-2.048 6.144-6.144 11.776-11.264 16.384-2.56 2.048-7.168 4.608-13.824 7.68s-13.824 5.632-22.016 8.192c-8.192 2.56-16.384 4.608-24.576 6.656s-15.872 3.072-22.016 3.584c-13.312 1.024-25.6-0.512-37.376-4.608-11.264-4.096-21.504-10.24-30.208-17.408-8.704-7.68-15.872-16.384-20.992-26.112-5.632-10.24-8.704-20.48-9.216-31.232-1.536-19.456 2.048-38.912 11.776-58.88 9.216-19.968 22.016-37.888 37.376-54.272s32.256-29.696 51.2-40.96c18.432-10.752 36.352-16.896 53.248-18.432 9.216-0.512 17.92 0.512 27.648 3.072 9.216 3.072 17.92 7.168 25.6 12.288s14.336 11.776 19.456 18.944c5.12 7.168 8.192 15.36 8.704 23.552 0.512 11.776-1.024 23.552-5.632 35.328z"  /></svg>