<?xml version="1.0" standalone="no"?><!DOCTYPE svg PUBLIC "-//W3C//DTD SVG 1.1//EN" "http://www.w3.org/Graphics/SVG/1.1/DTD/svg11.dtd"><svg class="icon" width="200px" height="166.10px" viewBox="0 0 1233 1024" version="1.1" xmlns="http://www.w3.org/2000/svg"><path d="M143.248964 59.354988a85.954313 85.954313 0 0 0-85.954313 85.954313v573.008193a85.954313 85.954313 0 0 0 85.954313 85.954313h744.904482a85.954313 85.954313 0 0 0 85.954313-85.954313v-573.008193a85.954313 85.954313 0 0 0-85.954313-85.954313z m0-57.294651h744.904482a143.248964 143.248964 0 0 1 143.248964 143.248964v573.008193a143.248964 143.248964 0 0 1-143.248964 143.248964h-744.904482A143.248964 143.248964 0 0 1 0 718.317494v-573.008193a143.248964 143.248964 0 0 1 143.248964-143.248964z" fill="#1890FF" /><path d="M143.248964 259.91094h286.497928v57.306988h-286.497928z" fill="#1890FF" /><path d="M143.248964 403.159904h286.497928v57.29465h-286.497928z" fill="#1890FF" /><path d="M143.248964 603.703518h744.904482v57.294651h-744.904482z" fill="#1890FF" /><path d="M630.302843 259.91094a85.954313 85.954313 0 1 0 85.954314-85.954313 85.954313 85.954313 0 0 0-85.954314 85.954313z" fill="#1890FF" /><path d="M544.34853 546.408867c0-110.764723 76.948048-200.555952 171.896289-200.555951s171.896289 89.791229 171.896289 200.555951z" fill="#1890FF" /><path d="M937.638554 727.903614m-296.096385 0a296.096386 296.096386 0 1 0 592.192771 0 296.096386 296.096386 0 1 0-592.192771 0Z" fill="#FFFFFF" /><path d="M1147.373494 613.524048a30.374554 30.374554 0 0 1 0 43.476819l-221.134651 217.297735a31.706988 31.706988 0 0 1-44.180048 0 30.608964 30.608964 0 0 1 0-43.476819l221.060627-217.297735a31.706988 31.706988 0 0 1 44.254072 0z" fill="#1890FF" /><path d="M749.370602 700.477687a31.706988 31.706988 0 0 1 44.180049 0l132.626506 130.270072a30.608964 30.608964 0 0 1 0 43.550843 31.706988 31.706988 0 0 1-44.180049 0l-132.626506-130.430457a30.374554 30.374554 0 0 1 0-43.390458z" fill="#1890FF" /></svg>