<?xml version="1.0" standalone="no"?><!DOCTYPE svg PUBLIC "-//W3C//DTD SVG 1.1//EN" "http://www.w3.org/Graphics/SVG/1.1/DTD/svg11.dtd"><svg class="icon" width="200px" height="200.00px" viewBox="0 0 1024 1024" version="1.1" xmlns="http://www.w3.org/2000/svg"><path d="M356.822885 285.164485l77.772132 38.886066H253.126709z" fill="#00A0E9" /><path d="M227.202665 375.898639h233.316396l-116.658198 64.81011z" fill="#00A0E9" /><path d="M333.64679 1023.999741a288.288332 288.288332 0 1 1 287.912433-288.327218A288.430914 288.430914 0 0 1 333.64679 1023.999741z m0-550.626696a262.338364 262.338364 0 1 0 261.988389 262.299478 262.455022 262.455022 0 0 0-261.988389-262.325402z m0 468.019729a205.694328 205.694328 0 1 1 205.435087-205.720251 205.785062 205.785062 0 0 1-205.435087 205.694327z m0-385.425725a179.731398 179.731398 0 1 0 179.511043 179.705474A179.822132 179.822132 0 0 0 333.64679 555.941125z m357.440719 461.123934A288.171674 288.171674 0 0 1 508.128568 951.412417a12.962022 12.962022 0 1 1 16.47473-20.026324 262.351326 262.351326 0 1 0-7.621669-398.646987 12.962022 12.962022 0 0 1-17.239489-19.443033 288.119826 288.119826 0 1 1 191.345369 503.79491z m0-82.606966A205.64248 205.64248 0 0 1 560.909922 887.898509a12.962022 12.962022 0 0 1 16.448806-20.078172 179.731398 179.731398 0 1 0-2.592405-275.922563 12.962022 12.962022 0 1 1-16.850628-19.741159 205.577669 205.577669 0 1 1 133.171814 362.327402zM342.810939 466.464287a12.88425 12.88425 0 0 1-5.742176-1.296202L142.314382 368.769527a12.962022 12.962022 0 0 1-6.558783-15.735895l41.245154-123.891006a12.962022 12.962022 0 0 1 12.300959-8.866024h302.44286a12.962022 12.962022 0 0 1 12.300959 8.866024l41.245154 123.891006a12.962022 12.962022 0 0 1-6.481011 15.684047l-190.139901 96.34671a13.052756 13.052756 0 0 1-5.858834 1.399898z m-178.875904-115.958249l178.875904 88.4658 174.404007-88.375066L482.411916 246.278419H198.686216z m355.301986 5.83291H161.809263a12.962022 12.962022 0 0 1 0-25.924044H519.237021a12.962022 12.962022 0 0 1 0 25.924044zM168.679135 342.586242a12.962022 12.962022 0 0 1-5.560707-24.705614l174.144766-82.594004a12.858326 12.858326 0 0 1 11.225111 0l169.55621 82.606966a12.962022 12.962022 0 0 1-11.341769 23.33164l-163.956617-79.833094-168.506286 79.923828a12.962022 12.962022 0 0 1-5.560708 1.270278z m0-123.891006a12.962022 12.962022 0 0 1-9.164149-3.797873l-82.490309-82.606966A12.962022 12.962022 0 0 1 95.352976 113.936174l82.490309 82.581042a12.962022 12.962022 0 0 1-9.16415 22.165058zM342.810939 136.101231a12.962022 12.962022 0 0 1-12.962022-12.962022V12.962022a12.962022 12.962022 0 1 1 25.924044 0v110.177187a12.962022 12.962022 0 0 1-12.962022 12.962022z m183.295954 68.828337a12.962022 12.962022 0 0 1-9.16415-22.152095l68.698717-68.828337a12.962022 12.962022 0 0 1 18.328299 18.354223l-68.698717 68.828337a12.962022 12.962022 0 0 1-9.151187 3.78491z"  /></svg>