<?xml version="1.0" standalone="no"?><!DOCTYPE svg PUBLIC "-//W3C//DTD SVG 1.1//EN" "http://www.w3.org/Graphics/SVG/1.1/DTD/svg11.dtd"><svg class="icon" width="200px" height="200.00px" viewBox="0 0 1024 1024" version="1.1" xmlns="http://www.w3.org/2000/svg"><path fill="#8a8a8a" d="M779.1875 160.4375H244.8125C167.46874999 160.4375 104.1875 223.71874999 104.1875 301.0625v421.875c0 77.34375001 63.28125002 140.625 140.625 140.625h534.375c77.34375001 0 140.625-63.28125002 140.625-140.625V301.0625c0-77.34375001-63.28125002-140.625-140.625-140.625z m84.375 562.5c0 46.40625001-37.96875002 84.375-84.375 84.37499999H244.8125c-46.40625001 0-84.375-37.96875002-84.375-84.37499999V301.0625c0-46.40625001 37.96875002-84.375 84.375-84.37499999h534.375c46.40625001 0 84.375 37.96875002 84.375 84.37499999v421.875z"  /><path fill="#8a8a8a" d="M465.59374999 492.31250001c19.68749999-19.68749999 32.34375001-47.81250001 32.34375001-78.75000001 0-61.87500001-50.62500001-112.50000001-112.5-112.5s-112.50000001 50.62500001-112.49999999 112.5c0 30.93750001 12.65624999 59.0625 32.34375001 78.75000001C260.28124999 519.03125002 230.75 568.24999999 230.75 624.50000001v50.62499999c0 26.71875002 21.09375003 47.81250001 46.40625001 47.8125h216.56249998c25.3125 0 46.40625001-21.09375003 46.40625001-47.8125V624.50000001c0-56.24999999-29.53125001-105.46875001-74.53125001-132.1875zM329.1875 413.5625c0-30.93750001 25.3125-56.24999999 56.25-56.25s56.24999999 25.3125 56.25 56.25-25.3125 56.24999999-56.25 56.25-56.24999999-25.3125-56.25-56.25z m154.6875 253.125H287v-42.18750002c0-54.84375001 43.59375001-98.4375 98.4375-98.43749998s98.4375 43.59375001 98.4375 98.43749998v42.18750002zM765.125 483.875H624.50000001c-15.46875001 0-28.125 12.65624999-28.12500001 28.125s12.65624999 28.125 28.12500001 28.125h140.62499999c15.46875001 0 28.125-12.65624999 28.125-28.125s-12.65624999-28.125-28.125-28.125zM765.125 343.24999999H596.375c-15.46875001 0-28.125 12.65624999-28.12500001 28.12500001s12.65624999 28.125 28.12500001 28.12499999h168.75c15.46875001 0 28.125-12.65624999 28.125-28.12499999s-12.65624999-28.125-28.125-28.12500001zM765.125 624.50000001h-112.5c-15.46875001 0-28.125 12.65624999-28.12500002 28.12499999s12.65624999 28.125 28.12500002 28.12499998h112.5c15.46875001 0 28.125-12.65624999 28.125-28.12499998s-12.65624999-28.125-28.125-28.12499999z"  /></svg>