<?xml version="1.0" standalone="no"?><!DOCTYPE svg PUBLIC "-//W3C//DTD SVG 1.1//EN" "http://www.w3.org/Graphics/SVG/1.1/DTD/svg11.dtd"><svg class="icon" width="200px" height="200.00px" viewBox="0 0 1024 1024" version="1.1" xmlns="http://www.w3.org/2000/svg"><path fill="#ffffff" d="M971.828172 289.84349a43.64702 43.64702 0 0 0-39.555112-24.892441 39.896104 39.896104 0 0 0-18.754578 4.4329 43.306027 43.306027 0 0 0-20.459541 58.309691 424.194472 424.194472 0 0 1-198.457542 565.365301A419.420579 419.420579 0 0 1 511.488511 934.660007a425.899434 425.899434 0 0 1-382.593406-238.694639A424.194472 424.194472 0 0 1 511.488511 87.294039a419.761572 419.761572 0 0 1 255.062272 85.93007 45.010989 45.010989 0 0 0 26.25641 8.865801A43.64702 43.64702 0 0 0 818.381618 103.320679a505.691642 505.691642 0 0 0-306.893107-102.297702 511.488511 511.488511 0 0 0-511.488511 497.848818v25.915418a511.488511 511.488511 0 0 0 242.445554 421.125541A515.239427 515.239427 0 0 0 511.488511 1022.295038 511.488511 511.488511 0 0 0 971.828172 289.84349z"  /><path fill="#ffffff" d="M511.488511 642.42957a58.991675 58.991675 0 0 0 61.719614-55.922743l29.325342-336.218449c0-31.030303-56.945721-56.263736-91.044956-56.263736s-91.385947 25.233433-91.385947 56.263736l29.325341 336.218449A59.332667 59.332667 0 0 0 511.488511 642.42957z m0 209.369298a73.654346 73.654346 0 0 0 0-147.308692 72.631369 72.631369 0 0 0-36.827172 9.888778A73.654346 73.654346 0 0 0 511.488511 851.798868z"  /></svg>