<?xml version="1.0" standalone="no"?><!DOCTYPE svg PUBLIC "-//W3C//DTD SVG 1.1//EN" "http://www.w3.org/Graphics/SVG/1.1/DTD/svg11.dtd"><svg class="icon" width="200px" height="200.00px" viewBox="0 0 1024 1024" version="1.1" xmlns="http://www.w3.org/2000/svg"><path d="M906.108 60.416c-47.035 0-83.937 52.444-83.937 52.444s-34.81-52.444-83.958-52.444c-47.806 0-86.842 39.43-89.398 87.167-1.44 26.968 7.256 47.498 19.506 66.084 24.478 37.14 131.496 126.56 154.01 126.56 22.98 0 129.043-89.09 153.683-126.56 12.274-18.676 20.944-39.116 19.5-66.084-2.556-47.74-41.596-87.167-89.406-87.167" fill="#DE5E88" /><path d="M714.11 468.738v12.552h216.632v-12.552c0-0.502-0.648-6.582-0.666-6.686-9.894-53.932-28.094-105.94-53.007-153.92-24.35 18.633-45.82 32.093-54.742 32.093-22.512 0-129.532-89.416-154.01-126.556-12.25-18.59-20.944-39.116-19.506-66.084 1.128-21.07 9.368-40.511 22.324-55.667-58.731-32.384-123.833-50.956-191.825-50.956 114.936-0.002 234.8 193.283 234.8 427.776z" fill="#BBDCE3" /><path d="M714.11 481.294v-12.552c0-234.493-119.864-427.782-234.798-427.782-114.925 0-234.799 193.677-234.799 427.782v12.552h469.596z" fill="#CFEB70" /><path d="M244.517 481.294v-12.552c0-234.105 119.876-427.782 234.8-427.782-219.524 0-409.001 193.471-450.757 421.092-0.012 0.04-0.108 8.58-0.224 19.242h216.181z" fill="#BBDCE3" /><path d="M479.318 868.287c-15.646 0-28.334 12.686-28.334 28.333v0.828c0 31.574-26.216 57.258-58.44 57.258-32.03 0-58.085-26.056-58.085-58.086 0-15.65-12.688-28.333-28.334-28.333-15.646 0-28.334 12.686-28.334 28.333 0 63.276 51.478 114.756 114.755 114.756 63.47 0 115.11-51.106 115.11-113.928v-0.828c-0.002-15.65-12.692-28.333-28.338-28.333z m-26.17-65.718a28.222 28.222 0 0 0 2.606 4.902 27.034 27.034 0 0 0 3.514 4.306 26.976 26.976 0 0 0 4.31 3.514 29.04 29.04 0 0 0 4.9 2.606 26.7 26.7 0 0 0 5.298 1.616c1.814 0.368 3.684 0.566 5.526 0.566 7.48 0 14.79-3.032 20.06-8.302a27.124 27.124 0 0 0 3.514-4.306 28.632 28.632 0 0 0 4.218-10.2c0.368-1.814 0.538-3.684 0.538-5.526 0-1.842-0.172-3.712-0.538-5.554a29.94 29.94 0 0 0-1.612-5.298 29.012 29.012 0 0 0-2.606-4.874 27.034 27.034 0 0 0-3.514-4.306c-6.574-6.574-16.378-9.606-25.586-7.736-1.814 0.34-3.598 0.906-5.298 1.616a29.04 29.04 0 0 0-4.9 2.606 26.976 26.976 0 0 0-4.31 3.514 27.124 27.124 0 0 0-3.514 4.306 28.868 28.868 0 0 0-2.606 4.874 29.99 29.99 0 0 0-1.612 5.298c-0.368 1.842-0.566 3.712-0.566 5.554s0.198 3.712 0.566 5.526a28.585 28.585 0 0 0 1.612 5.298z m570.658-656.498c-3.418-63.92-55.116-113.99-117.696-113.99-35.411 0-64.707 20.149-83.731 38.029-18.828-17.89-48.042-38.028-84.164-38.028-27.114 0-52.176 9.412-72.162 25.266-59.941-29.656-122.655-44.724-186.737-44.724-111.575 0-222.259 47.262-311.663 133.081C81.753 228.16 22.496 338.533 0.758 456.542c-0.518 2.474-0.53 3.568-0.756 24.442a28.33 28.33 0 0 0 28.332 28.644h422.648v189.381c0 15.65 12.688 28.334 28.334 28.334s28.334-12.686 28.334-28.334V509.628h423.09c15.646 0 28.334-12.686 28.334-28.334v-12.552c0-3.122-0.97-10.836-1.02-11.164a25.004 25.004 0 0 0-0.108-0.638c-8.88-48.392-24.112-95.653-45.342-140.817 1.338-1.096 2.66-2.178 4.038-3.32 29.908-24.83 67.428-59.818 83.046-83.568 11.344-17.26 26.182-44.654 24.118-83.164zM273.093 452.958c0.016-0.64 0.012-1.28 0.028-1.922 0.08-2.822 0.216-5.642 0.332-8.464 0.144-3.534 0.284-7.064 0.484-10.592 0.164-2.864 0.38-5.724 0.584-8.586 0.244-3.474 0.49-6.944 0.79-10.41 0.25-2.882 0.544-5.754 0.834-8.63 0.342-3.432 0.692-6.862 1.09-10.282 0.334-2.878 0.706-5.75 1.076-8.62 0.44-3.391 0.89-6.78 1.382-10.157 0.416-2.868 0.864-5.726 1.32-8.58a691.251 691.251 0 0 1 1.672-10.042 639.264 639.264 0 0 1 5.298-26.806 598.39 598.39 0 0 1 2.25-9.816 575.545 575.545 0 0 1 2.004-8.24 592.218 592.218 0 0 1 2.538-9.69c0.726-2.694 1.45-5.386 2.212-8.058a608.938 608.938 0 0 1 2.828-9.572c0.796-2.626 1.584-5.256 2.412-7.858a580.908 580.908 0 0 1 3.128-9.452c0.856-2.538 1.702-5.086 2.592-7.6 1.114-3.15 2.28-6.256 3.446-9.362 0.912-2.434 1.804-4.884 2.746-7.29 1.232-3.154 2.524-6.248 3.808-9.35 0.946-2.284 1.868-4.594 2.84-6.848 1.388-3.216 2.84-6.364 4.282-9.524 0.944-2.068 1.858-4.168 2.824-6.21 1.634-3.452 3.34-6.818 5.04-10.19 0.842-1.668 1.65-3.38 2.508-5.032a429.918 429.918 0 0 1 7.984-14.672c39.96-70.011 90.755-111.811 135.89-111.811 45.159 0 95.959 41.746 135.89 111.671a427.39 427.39 0 0 1 7.983 14.66c0.868 1.664 1.68 3.392 2.53 5.074 1.692 3.354 3.392 6.704 5.018 10.136 0.974 2.058 1.898 4.176 2.848 6.26 1.434 3.14 2.878 6.27 4.256 9.47 0.978 2.266 1.902 4.584 2.85 6.876 1.28 3.094 2.57 6.182 3.8 9.328 0.943 2.414 1.841 4.874 2.755 7.316 1.158 3.096 2.32 6.188 3.432 9.324 0.896 2.534 1.748 5.1 2.61 7.656a561.128 561.128 0 0 1 3.106 9.392c0.836 2.624 1.63 5.276 2.432 7.926a587.618 587.618 0 0 1 2.808 9.5 552.354 552.354 0 0 1 2.232 8.14c0.858 3.19 1.706 6.392 2.516 9.614a702.087 702.087 0 0 1 4.252 18.056 648.653 648.653 0 0 1 5.316 26.918 668.74 668.74 0 0 1 1.654 9.942c0.462 2.892 0.912 5.786 1.334 8.69 0.488 3.344 0.932 6.698 1.368 10.055 0.376 2.91 0.754 5.82 1.09 8.738 0.39 3.386 0.736 6.784 1.076 10.18 0.292 2.912 0.59 5.822 0.842 8.742 0.294 3.428 0.538 6.866 0.782 10.302 0.206 2.904 0.426 5.806 0.59 8.712 0.202 3.488 0.334 6.984 0.478 10.478 0.12 2.862 0.258 5.726 0.338 8.592 0.018 0.638 0.014 1.276 0.028 1.912H273.091v0.006z m53.192-348.382c-0.202 0.26-0.396 0.542-0.598 0.804a380.683 380.683 0 0 0-7.282 9.812c-0.448 0.624-0.886 1.26-1.332 1.89a407.24 407.24 0 0 0-6.48 9.422c-0.362 0.544-0.732 1.076-1.094 1.624a438.32 438.32 0 0 0-6.916 10.84c-0.504 0.815-1.006 1.64-1.508 2.461a472.164 472.164 0 0 0-6.866 11.588 502.678 502.678 0 0 0-8.406 15.38c-0.162 0.308-0.328 0.61-0.49 0.918a521.73 521.73 0 0 0-7.624 15.222c-0.25 0.518-0.508 1.032-0.756 1.552a540.624 540.624 0 0 0-6.97 15.212c-0.294 0.672-0.598 1.34-0.89 2.012a568.624 568.624 0 0 0-6.404 15.318l-0.93 2.312a578.34 578.34 0 0 0-5.896 15.522l-0.898 2.48a606.788 606.788 0 0 0-5.432 15.808l-0.822 2.522a622.218 622.218 0 0 0-4.996 16.168c-0.24 0.818-0.474 1.638-0.712 2.456a631.85 631.85 0 0 0-4.578 16.618c-0.192 0.74-0.38 1.484-0.57 2.228a673.387 673.387 0 0 0-4.186 17.19c-0.138 0.6-0.266 1.204-0.402 1.804a666.745 666.745 0 0 0-3.802 17.93l-0.206 1.09a685.951 685.951 0 0 0-3.442 18.942 678.223 678.223 0 0 0-2.884 19.006c-0.056 0.416-0.122 0.828-0.178 1.244a697.121 697.121 0 0 0-2.258 18.431c-0.074 0.666-0.152 1.328-0.224 1.992a717.21 717.21 0 0 0-1.692 18.08c-0.068 0.83-0.142 1.658-0.204 2.488-0.462 5.942-0.842 11.9-1.158 17.876-0.048 0.936-0.102 1.87-0.148 2.806a709.261 709.261 0 0 0-0.644 17.78c-0.012 0.518-0.046 1.034-0.056 1.552H59.24c33.422-156.997 138.505-288.233 267.045-348.38z m573.11 348.382H742.276c-0.012-0.576-0.046-1.144-0.06-1.718a732.123 732.123 0 0 0-0.552-15.99c-0.034-0.708-0.076-1.414-0.11-2.122a713.179 713.179 0 0 0-0.926-15.416c-0.046-0.632-0.082-1.264-0.128-1.896a720.927 720.927 0 0 0-1.362-15.926c-0.1-1.034-0.198-2.068-0.304-3.102a704.813 704.813 0 0 0-1.74-15.635c-0.108-0.872-0.224-1.74-0.334-2.61a691.947 691.947 0 0 0-2.168-15.788c-0.028-0.178-0.052-0.358-0.076-0.536a682.659 682.659 0 0 0-2.602-15.884c-0.164-0.938-0.324-1.876-0.49-2.814a688.983 688.983 0 0 0-2.884-15.15c-0.196-0.97-0.4-1.936-0.598-2.904a663.853 663.853 0 0 0-3.34-15.338l-0.066-0.306a471.77 471.77 0 0 0 3.466 2.884c67.508 55.854 86.304 55.854 94.332 55.854 3.394 0 8.708-0.016 18.616-4.078a60.722 60.722 0 0 0 1.988-0.842 121.81 121.81 0 0 0 10.022-4.97l0.09-0.05a258.631 258.631 0 0 0 4.12-2.34l1.086-0.638a244.794 244.794 0 0 0 7.896-4.882c14.666 33.062 25.798 67.281 33.241 102.197z m52.941-254.857c-13.702 20.834-57.431 60.466-92.01 87.208-0.151 0.114-0.32 0.206-0.473 0.324-20.976 16.052-32.458 22.608-37.628 25.15-0.38-0.178-0.802-0.4-1.208-0.6-0.458-0.23-0.896-0.44-1.386-0.698-0.43-0.23-0.904-0.502-1.354-0.75-0.536-0.298-1.056-0.578-1.624-0.906-0.442-0.256-0.924-0.552-1.382-0.828-0.626-0.374-1.236-0.732-1.89-1.136-0.416-0.258-0.864-0.55-1.294-0.818-0.746-0.47-1.48-0.93-2.258-1.436-0.362-0.236-0.748-0.498-1.116-0.74-0.878-0.578-1.754-1.154-2.672-1.774-0.332-0.224-0.682-0.474-1.02-0.702a326.479 326.479 0 0 1-2.998-2.066c-0.288-0.202-0.592-0.422-0.884-0.626a385.527 385.527 0 0 1-3.318-2.358c-0.29-0.206-0.592-0.434-0.884-0.644a642.897 642.897 0 0 1-3.534-2.578l-0.386-0.29a519.37 519.37 0 0 1-4.156-3.108c-0.122-0.09-0.246-0.19-0.368-0.28a615.913 615.913 0 0 1-4.31-3.292l-0.332-0.258a671.113 671.113 0 0 1-4.602-3.584c-17.706-13.926-37.214-30.66-53.654-46.278a535.118 535.118 0 0 1-8.654-8.402l-0.468-0.47a429.644 429.644 0 0 1-3.578-3.606l-0.478-0.496a323.042 323.042 0 0 1-3.338-3.462c-0.354-0.374-0.682-0.734-1.032-1.106-0.862-0.918-1.728-1.838-2.55-2.732-0.42-0.456-0.802-0.892-1.208-1.344-0.712-0.788-1.44-1.584-2.114-2.352-0.406-0.462-0.77-0.902-1.164-1.354-0.632-0.732-1.278-1.47-1.87-2.178-0.394-0.47-0.74-0.912-1.114-1.372-0.544-0.666-1.108-1.34-1.612-1.984-0.394-0.498-0.734-0.966-1.102-1.45-0.434-0.57-0.892-1.154-1.292-1.7a77.296 77.296 0 0 1-2.042-2.936c-3.542-5.378-6.414-10.504-8.66-15.536-4.488-10.062-6.472-19.74-6.322-30.262 0.014-1.052 0.052-2.114 0.108-3.182l0.002-0.046c0.104-1.91 0.308-3.796 0.578-5.662 0.11-0.76 0.272-1.508 0.408-2.262 0.202-1.106 0.406-2.21 0.66-3.296 0.206-0.872 0.45-1.736 0.694-2.602 0.27-0.96 0.546-1.918 0.858-2.858a66.64 66.64 0 0 1 2.076-5.44c0.314-0.725 0.632-1.447 0.972-2.161a65.7 65.7 0 0 1 1.746-3.38c0.264-0.482 0.518-0.97 0.794-1.446a63.884 63.884 0 0 1 2.828-4.44c0.036-0.054 0.068-0.108 0.104-0.158 11.272-16.038 29.448-26.6 49.382-26.6 27.442 0 52.918 28.788 60.356 39.777a28.336 28.336 0 0 0 23.22 12.662l0.386 0.002a28.34 28.34 0 0 0 23.174-12.03c7.378-10.483 34.376-40.413 60.76-40.413 31.915 0 59.325 27.07 61.11 60.351 0.931 17.306-3.379 31.504-14.877 48.994z"  /></svg>