<?xml version="1.0" standalone="no"?><!DOCTYPE svg PUBLIC "-//W3C//DTD SVG 1.1//EN" "http://www.w3.org/Graphics/SVG/1.1/DTD/svg11.dtd"><svg class="icon" width="200px" height="200.00px" viewBox="0 0 1024 1024" version="1.1" xmlns="http://www.w3.org/2000/svg"><path d="M261.298761 0h468.114286a87.771429 87.771429 0 0 1 87.771428 87.771429v146.285714a87.771429 87.771429 0 0 1-87.771428 87.771428H261.298761a87.771429 87.771429 0 0 1-87.771428-87.771428V87.771429a87.771429 87.771429 0 0 1 87.771428-87.771429z m0 87.771429v117.028571h175.542857V87.771429H261.298761z m263.314286 0v117.028571h175.542857V87.771429h-175.542857z" fill="#775FFF" /><path d="M56.498761 263.314286m87.771429 0l702.171428 0q87.771429 0 87.771429 87.771428l0 585.142857q0 87.771429-87.771429 87.771429l-702.171428 0q-87.771429 0-87.771429-87.771429l0-585.142857q0-87.771429 87.771429-87.771428Z" fill="#2A53D3" /></svg>