<?xml version="1.0" standalone="no"?><!DOCTYPE svg PUBLIC "-//W3C//DTD SVG 1.1//EN" "http://www.w3.org/Graphics/SVG/1.1/DTD/svg11.dtd"><svg class="icon" width="200px" height="159.13px" viewBox="0 0 1287 1024" version="1.1" xmlns="http://www.w3.org/2000/svg"><path d="M605.015034 550.704107l-116.091446-171.904641a20.09275 20.09275 0 0 0-31.255389 22.325278l129.486612 194.229919L759.059452 559.634218a20.09275 20.09275 0 0 0-8.930111-37.952973z m189.764863-283.531031l109.393862-73.673417-8.930112-13.395167a22.325278 22.325278 0 0 1 6.697584-31.255389l156.276946-104.928807a22.325278 22.325278 0 0 1 31.255389 6.697584L1281.470957 336.381438a22.325278 22.325278 0 0 1-6.697584 31.255389l-156.276946 104.928807a22.325278 22.325278 0 0 1-31.255389-6.697584l-8.930111-13.395167-109.393862 73.673418A370.599615 370.599615 0 0 0 794.779897 269.405604zM238.880475 640.005219a370.599615 370.599615 0 0 0 174.137168 256.740696l-178.602224 120.556502a22.325278 22.325278 0 0 1-17.860222 2.232527l-174.137169-40.1855a22.325278 22.325278 0 0 1-15.627694-24.557806l22.325278-176.369696a22.325278 22.325278 0 0 1 8.930111-15.627695z m810.407591-334.87917l42.418028 62.510778a22.325278 22.325278 0 0 0 31.255389 6.697583l60.278251-40.1855a22.325278 22.325278 0 0 0 6.697583-31.255389l-104.928807-156.276946a22.325278 22.325278 0 0 0-31.255389-6.697583L991.242343 180.104492a22.325278 22.325278 0 0 0-6.697584 31.255389l42.418029 62.510778 49.115611-33.487917a20.09275 20.09275 0 1 1 22.325278 31.25539zM147.346835 912.37361a20.09275 20.09275 0 1 0-26.790334-4.465056 20.09275 20.09275 0 0 0 26.790334 4.465056z m80.371001-53.580667a20.09275 20.09275 0 1 0-26.790334-4.465056 20.09275 20.09275 0 0 0 26.790334 4.465056z m571.527116 13.395167A350.506864 350.506864 0 1 1 893.01112 385.497049 350.506864 350.506864 0 0 1 799.244952 872.18811z" fill="#FFFD00" /><path d="M580.457228 512.751134l-116.091446-171.904641a20.09275 20.09275 0 1 0-31.255389 22.325278l129.486612 191.997391 171.904641-35.720445a20.09275 20.09275 0 1 0-8.930111-37.952972z m189.764863-283.531031l109.393862-73.673417-8.930111-13.395167a22.325278 22.325278 0 0 1 4.465055-31.255389l156.276946-107.161334a22.325278 22.325278 0 0 1 31.255389 6.697583l191.997391 285.763558a22.325278 22.325278 0 0 1-6.697583 31.25539l-156.276946 104.928806a22.325278 22.325278 0 0 1-31.255389-6.697583l-8.930112-13.395167-109.393862 73.673417a370.599615 370.599615 0 0 0-174.137168-256.740697z m-558.13195 372.832143a370.599615 370.599615 0 0 0 174.137168 256.740697l-178.602224 120.556501a22.325278 22.325278 0 0 1-17.860222 2.232528L17.860222 941.396471A22.325278 22.325278 0 0 1 2.232528 916.838666l22.325278-176.369697a22.325278 22.325278 0 0 1 8.930111-15.627694z m810.407591-334.87917l42.418028 62.510778a22.325278 22.325278 0 0 0 31.255389 6.697584l60.278251-40.185501a22.325278 22.325278 0 0 0 6.697583-31.255389l-104.928806-156.276946a22.325278 22.325278 0 0 0-31.255389-6.697583l-60.278251 40.1855a22.325278 22.325278 0 0 0-6.697583 31.255389l42.418028 62.510779L1051.520593 202.42977a20.09275 20.09275 0 1 1 22.325278 31.255389zM120.556501 876.653165a20.09275 20.09275 0 1 0-26.790333-6.697583 20.09275 20.09275 0 0 0 26.790333 6.697583z m82.603529-55.813195a20.09275 20.09275 0 1 0-26.790334-4.465055 20.09275 20.09275 0 0 0 26.790334 4.465055z m571.527116 13.395167a350.506864 350.506864 0 1 1 93.766168-486.69106 350.506864 350.506864 0 0 1-95.998695 486.69106z" fill="#FF5F25" /><path d="M591.619867 530.611356L475.528421 358.706716a20.09275 20.09275 0 0 0-31.255389 22.325278l129.486612 194.229918 171.904641-35.720444a20.09275 20.09275 0 1 0-8.930111-37.952973zM781.38473 247.080326l109.393862-73.673418-8.930111-13.395166a22.325278 22.325278 0 0 1 4.465055-31.255389l156.276946-104.928807a22.325278 22.325278 0 0 1 31.255389 6.697583l191.997391 285.763559a22.325278 22.325278 0 0 1-6.697583 31.255389l-156.276946 104.928806a22.325278 22.325278 0 0 1-31.255389-6.697583l-8.930112-13.395167-109.393862 73.673418a370.599615 370.599615 0 0 0-174.137168-256.740697zM225.485308 622.144996a370.599615 370.599615 0 0 0 174.137168 256.740697l-178.602224 120.556501a22.325278 22.325278 0 0 1-17.860222 2.232528l-171.904641-42.418028a22.325278 22.325278 0 0 1-15.627694-24.557806l22.325278-176.369696a22.325278 22.325278 0 0 1 8.930111-15.627695z m810.407591-337.111698l42.418028 62.510779a22.325278 22.325278 0 0 0 31.255389 6.697583l60.278251-40.1855a22.325278 22.325278 0 0 0 6.697583-31.255389l-104.928806-156.276946a22.325278 22.325278 0 0 0-31.25539-6.697584l-62.510778 40.185501a22.325278 22.325278 0 0 0-6.697583 31.255389l42.418028 62.510778 49.115611-33.487917a20.09275 20.09275 0 1 1 22.325278 31.255389zM133.951668 894.513388a20.09275 20.09275 0 1 0-26.790334-4.465056 20.09275 20.09275 0 0 0 26.790334 4.465056z m80.371001-53.580668a20.09275 20.09275 0 1 0-26.790334-4.465055 20.09275 20.09275 0 0 0 26.790334 4.465055z m571.527116 13.395167a350.506864 350.506864 0 1 1 93.766168-486.69106 350.506864 350.506864 0 0 1-93.766168 486.69106z" fill="#3D5AFE" /><path d="M631.805367 561.866746l113.858918-24.557806a20.09275 20.09275 0 1 0-8.930111-37.952973l-104.928807 22.325278a627.340312 627.340312 0 0 1 84.836057-285.763558 350.506864 350.506864 0 0 1 8.930111 649.665589 629.572839 629.572839 0 0 1-93.766168-321.484003zM781.38473 244.847798l109.393862-71.44089-8.930111-13.395166a22.325278 22.325278 0 0 1 4.465055-31.255389l156.276946-104.928807a22.325278 22.325278 0 0 1 31.255389 6.697583l191.997391 285.763559a22.325278 22.325278 0 0 1-6.697583 31.255389l-156.276946 104.928806a22.325278 22.325278 0 0 1-31.255389-6.697583l-8.930112-13.395167-109.393862 73.673418a370.599615 370.599615 0 0 0-174.137168-256.740697z m254.508169 40.1855l42.418028 62.510779a22.325278 22.325278 0 0 0 31.255389 6.697583l60.278251-40.1855a22.325278 22.325278 0 0 0 6.697583-31.255389l-104.928806-156.276946a22.325278 22.325278 0 0 0-31.25539-6.697584l-62.510778 40.185501a22.325278 22.325278 0 0 0-6.697583 31.255389l42.418028 62.510778 49.115611-33.487917a20.09275 20.09275 0 0 1 22.325278 31.255389z" fill="#0023E8" /></svg>