<?xml version="1.0" standalone="no"?><!DOCTYPE svg PUBLIC "-//W3C//DTD SVG 1.1//EN" "http://www.w3.org/Graphics/SVG/1.1/DTD/svg11.dtd"><svg class="icon" width="200px" height="200.00px" viewBox="0 0 1024 1024" version="1.1" xmlns="http://www.w3.org/2000/svg"><path d="M647.1 995.9H399.2c-34.5 0-62.7-28.2-62.7-62.7V328.9c0-34.5 28.2-62.7 62.7-62.7h247.9c34.5 0 62.7 28.2 62.7 62.7v604.3c0 34.5-28.2 62.7-62.7 62.7z" fill="#83CDFF" /><path d="M336.6 486s194.8 55.7 373.2 0v59.8s-145.4 58.9-373.2 0V486z" fill="#FFF188" /><path d="M647.4 287.6c22.6 0 41 18.4 41 41v604.8c0 22.6-18.4 41-41 41H399c-22.6 0-41-18.4-41-41V328.6c0-22.6 18.4-41 41-41h248.4m0-21.4H399c-34.3 0-62.4 28.1-62.4 62.4v604.8c0 34.3 28.1 62.4 62.4 62.4h248.4c34.3 0 62.4-28.1 62.4-62.4V328.6c0-34.3-28.1-62.4-62.4-62.4z"  /><path d="M675 269.3s6.4 37.5-151.8 37.5-151.8-37.5-151.8-37.5V101.6c0-39.1 24.9-71 55.3-71h193c30.4 0 55.3 32 55.3 71v167.7z" fill="#4F95FC" /><path d="M619.7 52c18.4 0 33.9 22.7 33.9 49.6v164.3c-5.4 4.3-31.5 19.5-130.4 19.5-98.8 0-125-15.2-130.4-19.5V101.6c0-26.9 15.5-49.6 33.9-49.6h193m0-21.4h-193c-30.4 0-55.3 32-55.3 71v167.7s-6.4 37.5 151.8 37.5S675 269.3 675 269.3V101.6c0-39-24.9-71-55.3-71zM358 513.2c34.8 7.6 99.5 18.9 175.8 18.9 55.4 0 107.2-6 154.6-17.9v16.2c-23.5 7.1-76.9 20.1-153.8 20.1-57.3 0-116.6-7.2-176.6-21.5v-15.8M709.8 486c-59.5 18.6-120.7 24.8-176 24.8-110.6 0-197.2-24.8-197.2-24.8v59.8c76 19.6 142.7 26.2 198 26.2 110.6 0 175.2-26.2 175.2-26.2V486z"  /><path d="M336.6 692.2s194.8 55.7 373.2 0V752s-145.4 58.9-373.2 0v-59.8z" fill="#FFF188" /><path d="M358 719.4c34.8 7.6 99.5 18.9 175.8 18.9 55.4 0 107.2-6 154.6-17.9v16.2c-23.5 7.1-76.9 20.1-153.8 20.1-57.3 0-116.6-7.2-176.6-21.5v-15.8m351.8-27.2c-59.5 18.6-120.7 24.8-176 24.8-110.6 0-197.2-24.8-197.2-24.8V752c76 19.6 142.7 26.2 198 26.2 110.6 0 175.2-26.2 175.2-26.2v-59.8z"  /></svg>